<?xml version="1.0" ?><!-- Uploaded to: SVG Repo, www.svgrepo.com, Generator: SVG Repo Mixer Tools -->
<svg fill="#000000" width="800px" height="800px" viewBox="0 0 750 750" id="a" xmlns="http://www.w3.org/2000/svg"><path d="M569.98,383.75c-6.23-11.9-15.77-21.5-24.58-31.47-3.31-3.72-6.01-11.17-9.69-15.83,0-.03,0-.07,0-.1-.72-11.01-.2-22.03,1.79-32.89,1.78-9.85,5.8-19.14,7.19-29.09,2.28-16.33,1.64-34.69-8.68-48.34-25.33-32.04-82.17-12.74-87.25,26.4-3.14,15.18,1.56,30.1,5.06,44.75,1.15,7.2,1.71,14.45,1.45,21.74-.31,7.57,.3,15.32-1.6,22.72-2.26,6.74-6.53,12.65-10.75,18.3-1.35,1.18-2.44,2.61-3.29,4.17-3.52-7.75-7.62-15.48-12.33-23.31-4.06-6.55-7.23-13.67-9.51-21.07,5.02-1.02,7.59-7.06,7.59-11.78,0-5.16-3.07-11.94-9.08-11.94-.96,0-1.83,.19-2.64,.5-.31-5.56-.15-11.13,.5-16.63,1.07-2.12,1.62-4.62,1.63-7.14,3.88-14.89,9.55-29.38,10.17-44.95,3.98-33.83-16.61-52-49.13-53.42-25.53-1.53-48.13,18.43-57.08,41.21-9.27,22.63-.1,46.27,5.23,68.63,1.11,7.19,1.53,14.48,1.94,21.74,.29,6.04,.87,12.37-.83,18.28-3.82,10.93-12.59,19.08-18.57,28.77-.84,1.41-1.66,2.83-2.47,4.26-3.76-3.62-7.4-7.35-10.59-11.54-7.39-10.54-10.1-24.55-8.53-37.22,2.23-12.83,8.32-24.54,10.82-37.29,6.09-30.56-5.22-55.34-38.32-59.02-23.37-3.7-48.66,7.77-60.12,28.69-5.75,10.46-7.36,22.72-7.57,34.52-.58,15.97,8.57,29.46,13.41,44.08,5.94,19.52-1.73,32.86-12.76,48.38-32.65,47-27.99,93.48-3.75,142.93,8.65,17.98,20.4,34.48,34.23,48.84,10.11,8.28,30.14,7.8,42.93,9.36,14.03,1,22.8,2.28,32.87-9.25,9.96-9.3,16.25-21.33,20.63-34.06,5.41,10.03,11.05,19.95,16.05,30.19,2.36,5.02,4.3,10.65,9.37,13.59,11.07,5.96,24.39,4.96,36.58,5.92,11.33,.41,23.51,1.18,33.69-4.69,13.62-8.3,20.88-24.1,26.71-39.3,.64,2.17,1.21,4.18,1.55,5.9,7.3,25.85,24.69,34.95,50.48,34.23,13.9,.31,28.01-1.72,41.02-6.66,21.93-12.29,21.8-45.59,29.71-66.96,8.78-24.05,17.7-48.63,18.35-74.53,.32-14.02-5.46-27.42-11.82-39.64Zm-92.42-52.48c-.05-4.27-.35-8.55-.78-12.81,1.63-.02,3.25-.07,4.75,.05,11.51,.09,23.03,.02,34.54,0-.17,4.44-.1,8.89,.23,13.32-12.91-.15-25.84-.63-38.73-.56Zm-15.81-72.38c.93-25.03,33.3-32.86,52.45-22.55,16.45,6.43,14.4,25.3,10.48,39.34-1.92,5.63-3.69,11.31-5.11,17.07-8.24,0-16.49,0-24.73,.05-7.44,.45-15.37-.51-22.69,1.04-1.62-5.19-3.64-10.29-5.94-15.49-2.56-6.21-5.04-12.63-4.46-19.47Zm-114.25,39.51c.27-3.75,.28-7.48,.1-11.18,2.11-.21,4.2-.41,6.13-.24,13.52-.33,27.03-.97,40.55-1.33-.54,8.16-.12,16.41,1.01,24.52-8.58,.31-17.16,.41-25.75,.47-5.36,.45-14.53-.24-22.5,.79,.27-4.35,.37-8.71,.45-13.02Zm2.06-95.48c5.62-5.61,12.64-10.07,20.72-10.74,12.28-.49,25.8,3.39,33.99,12.96,6.16,8.79,3.52,20.31,2.52,30.28-1.54,8.51-4.67,16.56-7.36,24.74-15.97,.31-31.96,.39-47.91,1.36-2.63,.26-5.3,.39-7.93,.75-1-3.98-2.14-7.94-3.35-11.87-5.9-17.9-4.12-33.49,9.32-47.49Zm-123.36,114.77c5.98,.07,11.96,.28,17.94,.23,7.51,.02,15.02,0,22.53,0-.02,3.26,.17,6.54,.52,9.79-8.65,0-17.31-.02-25.96,.16-3.9,.32-9.24,.1-14.43,.32,.02-3.51-.19-7.02-.61-10.51Zm-9.18-69.85c10.92-19.03,37.99-24.14,55.69-11.63,16.13,11.75,3.48,38.25-2.25,56.89-1.09-.57-2.31-.92-3.69-.92-8.91,0-17.83-.09-26.74,.06-4.78,.08-9.58,.08-14.35,.41-2.17,.02-4.24,.18-6.13,.6-2.35-5.43-4.94-10.78-6.35-16.51-.97-9.66-1.15-20.24,3.81-28.9Zm81.99,263.91c-3.14,12.51-8.96,24.21-18.16,33.38-3.54,1.67-8.25,.59-12.19,1.07-12.17,.4-24.35,2.07-36.54,1.45-1.56-.28-3.36-.25-4.48-1.53-3.65-3.75-7.18-7.58-10.39-11.72-10.48-13.59-16.1-29.86-19.35-46.54-7.75-31.52-8.46-65.68,4.22-96.03,5.66-13.25,14.51-24.95,19.94-38.27,1.79-.02,3.59,0,5.38-.02,14.74,.14,29.47-.19,44.2-.18,.9-.05,1.73-.23,2.5-.49,2,4.24,4.39,8.28,7.22,12,2.44,2.81,8.01,9.38,13.83,14.52-13.6,40.51-6.42,78.65,9.28,116.61-2.92,4.42-4.14,11.18-5.48,15.72Zm114.11,23.34c-3.22,5.78-7.47,11.38-14.19,13.1-8.97,2.07-18.31,1.9-27.48,2.28-7.69-.04-15.52,.3-23.13-.93-7.85-14.2-18.6-26.75-25.16-41.68,.53-5.05-1.11-10.98-5.09-14.16-3.85-12.38-6.41-25.18-7.56-38.09-.92-25.55,2.56-51.25,9.43-75.86,4.19-14.76,13.77-26.96,20.73-40.41,.29-.59,.55-1.19,.81-1.79,.74-.03,1.49-.13,2.24-.34,19.42-1.34,38.93-.73,58.36-1.88,1.35,3.62,2.69,7.23,3.81,10.87,8.27,16.06,20.58,29.51,29.16,45.41,8.44,14.08,8.72,31.06,8.07,47.01-1.97,34.03-13.44,66.85-30.01,96.45Zm145.22-65.89c-6.18,18.52-12,37.24-19.07,55.44-8.32,19.75-12.2,19.41-32.42,22.59-12.46,0-29.7,1.29-39.7-7.13-7.43-8.02-8.45-19.66-11.97-29.62-.58-3.27-2.16-7.01-4.78-9.11,4.7-19.93,6.17-40.58,4.9-61.04,.21-19.4-2.19-36.88-7.22-53.67,5.18-.12,10.05-5.96,13.8-10.87,4.68-5.9,8.95-12.29,11.72-19.3,2.61,.18,5.27,.14,7.62,.41,13.56,.54,27.13,.49,40.7,.53,.99,1.75,2.01,3.49,3.04,5.22,5.32,9.67,12.09,18.37,18.79,27.1,6.45,8.41,11.21,17.91,15.53,27.54,5.61,15.12,2.76,36.44-.97,51.91Z"/></svg>