<?xml version="1.0" standalone="no"?>
<!DOCTYPE svg PUBLIC "-//W3C//DTD SVG 20010904//EN" "http://www.w3.org/TR/2001/REC-SVG-20010904/DTD/svg10.dtd">
<svg version="1.0" xmlns="http://www.w3.org/2000/svg" width="512.000000pt" height="512.000000pt"
  viewBox="0 0 512.000000 512.000000" preserveAspectRatio="xMidYMid meet">

  <g transform="translate(0.000000,512.000000) scale(0.100000,-0.100000)" stroke="none">
    <path d="M2650 5113 c-213 -35 -400 -211 -455 -428 -70 -275 96 -569 375 -666
85 -29 237 -31 325 -5 218 65 366 234 403 460 14 87 14 103 -1 178 -45 229
-216 407 -436 454 -63 13 -156 16 -211 7z" />
    <path d="M4589 3980 c-25 -4 -61 -16 -80 -26 -23 -13 -66 -20 -136 -24 -89 -6
-107 -10 -145 -35 l-43 -28 -605 37 c-333 21 -690 44 -795 52 -261 21 -452 21
-538 0 -169 -40 -325 -164 -405 -322 -11 -22 -71 -171 -133 -330 -61 -159
-157 -390 -212 -514 -124 -280 -136 -315 -147 -420 -6 -65 -41 -190 -149 -540
l-141 -455 -168 -165 c-92 -91 -297 -287 -457 -434 -159 -148 -303 -284 -318
-302 -56 -67 -73 -157 -47 -255 16 -60 100 -141 169 -164 60 -20 132 -17 192
9 33 14 601 435 924 685 263 204 282 231 456 627 61 140 107 234 114 232 7 -2
179 -111 383 -242 l370 -240 81 -255 c44 -141 109 -355 144 -476 35 -121 71
-234 80 -250 26 -49 74 -95 123 -116 114 -51 227 -28 308 62 82 91 84 134 17
554 -91 570 -133 771 -181 866 -27 52 -165 178 -445 408 -138 113 -251 205
-253 206 -2 2 181 480 208 543 10 23 11 23 72 -33 34 -32 78 -64 97 -72 53
-23 135 -19 236 11 49 14 104 26 123 26 18 0 62 7 97 16 50 13 71 14 96 5 78
-27 253 4 341 60 182 117 205 386 46 535 -27 25 -70 55 -96 66 -119 53 -315
22 -420 -67 -33 -28 -189 -72 -203 -58 -29 30 -129 176 -125 181 3 3 264 21
580 41 l574 35 52 -28 c42 -23 68 -29 139 -33 55 -3 104 -12 136 -25 106 -44
278 -42 367 3 81 41 154 128 179 211 20 67 13 168 -16 233 -73 166 -235 241
-446 205z" />
  </g>
</svg>
