<?xml version="1.0" encoding="utf-8"?>
<!-- Generator: Adobe Illustrator 24.3.0, SVG Export Plug-In . SVG Version: 6.00 Build 0)  -->
<svg version="1.1" id="Warstwa_1" xmlns="http://www.w3.org/2000/svg" xmlns:xlink="http://www.w3.org/1999/xlink" x="0px" y="0px"
	 viewBox="0 0 59.8 87.9" style="enable-background:new 0 0 59.8 87.9;" xml:space="preserve">
<g transform="translate(0.000000,100.000000) scale(0.100000,-0.100000)">
	<path d="M71,987.4c-87-48-50-186,49-186c51,0,100,49,100,99C220,975.4,137,1024.4,71,987.4z"/>
	<path d="M171,744.4c-24-19-40-75-41-136c0-51,28-184,47-222c21-41,134-209,146-216c19-13,228-50,247-44c11,4,23,17,26,31
		c11,42-17,60-120,80l-92,17l-37,68c-26,47-36,75-32,92c4,13-1,60-10,105c-25,124-19,138,51,112l23-9l-22-65c-17-54-18-67-8-80
		c16-19,45-21,59-3c5,6,25,47,43,91c24,57,30,82,23,94c-14,22-210,102-249,102C207,761.4,182,753.4,171,744.4z"/>
	<path d="M16,445.4c-13-12-16-41-16-154c0-147,7-170,50-170c41,0,50,26,50,136c0,97,1,104,20,104c24,0,24-4,4,53c-15,45-18,47-54,47
		C48,461.4,25,454.4,16,445.4z"/>
</g>
</svg>
