<svg id="Warstwa_1" data-name="Warstwa 1" xmlns="http://www.w3.org/2000/svg" viewBox="0 0 703.43 275.24"><defs><style>.cls-1{font-size:188.97px;font-family:Haettenschweiler;letter-spacing:0.03em;}.cls-1,.cls-2{fill:#7bd100;}</style></defs><text class="cls-1" transform="translate(239.28 212.78)">FitNest</text><path class="cls-2" d="M-16.91,271.64c14.6,39.11,7,60.41-9.34,77.34-17.8,18.68-45.53,32.69-65.09,60.13-26,36.48-30.35,116.75,63.34,137.77C-67.4,526.15-75.87,466-33.25,428.37c-11.1,36.49,9.34,59.84,34.73,51.37,24.81-8.46,41.15,9.34,40.57,29.78-.29,14-5.84,26-20.14,32.69,61-10.8,85.52-61.3,85.52-99.83,0-50.78-45.24-57.79-22.47-100.4-27.15,2.33-36.49,20.14-33.86,49.33C52.85,410.57,32.71,423.7,17.82,415c-12-7.3-11.67-21.31-1.16-31.82C39.13,361,47.89,309.87-16.91,271.64Z" transform="translate(107.43 -271.64)"/></svg>
