<?xml version="1.0" ?><!-- Uploaded to: SVG Repo, www.svgrepo.com, Generator: SVG Repo Mixer Tools -->
<svg fill="#000000" width="800px" height="800px" viewBox="0 0 750 750" id="a" xmlns="http://www.w3.org/2000/svg"><path d="M501.32,247.71c-18.88-15.11-44.28-16.41-67.34-13.36-23.81,2.02-45.84,15.98-57.73,36.46-4.35-6.02-10.14-11.21-15.76-15.57-24.23-19.98-58.53-28.89-88.04-15.54-34.73,15.13-53.36,53.56-55.99,89.88-3.29,21.26,.7,40.93,13.75,58.25,15.35,21.77,36.14,38.95,57.52,54.53,28.85,21.52,53.19,46.67,84.74,64.85,.49,1.47,1.15,2.87,1.97,4.14,9.89,12.72,17.58,.94,25.12-6.61,17.18-16.05,34.6-31.84,50.88-48.82,13.02-12.94,28.01-23.71,41.05-36.64,23.1-22.76,42.84-52.22,43.12-85.71-.79-30.92-7.01-66.24-33.31-85.87Zm-106.79,223.21c-3.42,2.64-6.64,5.5-9.76,8.49-.31-.23-.62-.44-.95-.63-10.46-6.06-20.64-12.58-31.07-18.7-12.08-6.95-24.02-14.18-35.39-22.26-16.97-13.18-32.16-28.44-47.04-43.93,12.87-.42,25.78-.16,38.64-.57,15.34-1.59,15.35-23.25,18.13-34.89,4.82,8.11,8.76,16.69,13.2,25.01,7.25,12.94,15.15,25.54,22.65,38.3,17.21,15.45,32.06-37.71,33.94-48.97,2.62,6.61,4.05,15.34,11.46,18.27,8.5,2.54,17.55,2.17,26.32,3.04,14.48,.93,28.96,2.65,43.47,2.66-8.01,9.48-16.43,18.61-25.3,27.32-17.28,18.23-38.56,31.62-58.31,46.87Zm107.63-105.38c-3.32-2.18-7.48-1.48-11.28-.7-10.9,.87-21.83,1.33-32.74,2.06-13.73,.66-27.61,3.54-41.32,1.76-4.86-11.16-9.18-44.39-20.11-47.93-5.65-2.28-11.57,1.69-13.76,6.94-8.03,24.09-6.67,50.38-14.45,74.56-6.02-10.44-12.75-20.52-17.18-31.79-5.02-10.67-15.23-47.08-28.02-47.25-9.61,.43-10.53,11.95-11.87,19.28-1.64,8.54-2.95,17.19-5.49,25.52-12.99,.45-43.7-1.9-56.87,3.35-6.44-6.85-12.65-13.93-16.33-22.56-3.85-18.5-1.76-38.73,7.82-55.23,10.93-18.13,30.47-30.44,50.79-35.4,20.73-4.17,40.96,5.07,57.03,17.58,6.43,4.77,12.53,10.14,16.8,17,.95,3.65,2.69,6.02,4.74,7.29,2.15,4.64,6.52,7.85,11.8,4.87,4.13-2.52,4.96-7.6,6.51-11.81,1.9-4.27,4.42-8.2,7.22-11.93,7.82-9.68,18.16-17.4,30.31-20.56,23.7-6.44,50.88-5.31,71.69,8.77,19.7,13.56,23.64,40.27,20.9,62.49-2.31,12.5-8.88,23.37-16.17,33.68Z"/></svg>