<?xml version="1.0" encoding="utf-8"?>
<!-- Generator: Adobe Illustrator 24.3.0, SVG Export Plug-In . SVG Version: 6.00 Build 0)  -->
<svg version="1.1" id="Warstwa_1" xmlns="http://www.w3.org/2000/svg" xmlns:xlink="http://www.w3.org/1999/xlink" x="0px" y="0px"
	 viewBox="0 0 67.9 87.8" style="enable-background:new 0 0 67.9 87.8;" xml:space="preserve">
<g transform="translate(0.000000,100.000000) scale(0.100000,-0.100000)">
	<path d="M294.7,993.2c-27-12-61-51-70-78c-3-13-14-23-25-23c-51,0-90-44-90-103c0-17,5-19,38-14c21,4,46,17,58,31l21,24l32-31
		c27-27,39-32,81-32c43,0,54,5,82,33s33,39,33,82c0,42-5,54-31,81C390.7,996.2,331.7,1009.2,294.7,993.2z"/>
	<path d="M221.7,711.2c-29-5-61-13-71-18c-20-11-131-209-131-234c0-10,9-26,21-38c21-21,47-22,117-3c18,5,22,2,22-18
		c0-27-21-49-94-98c-27-18-57-41-68-52c-26-26-23-74,7-103c21-22,33-25,94-25h69l-5,38c-4,31,0,44,19,66c20,23,42,32,132,52
		c70,16,113,21,119,15c18-18-4-30-101-51c-100-23-132-40-132-71c0-44,20-49,221-49c188,0,190,0,214,25c32,32,33,78,2,108
		c-13,12-53,43-90,69c-54,38-67,53-67,74c0,22,3,25,23,20c69-19,95-18,116,3c12,12,21,29,21,39c0,9-26,64-58,122
		c-53,95-62,106-98,118C452.7,717.2,289.7,724.2,221.7,711.2z M380.7,628.2c16-47,20-50,75-70c57-21,78-41,52-51c-8-3-43,5-78,17
		c-56,20-65,27-74,56c-5,17-12,32-16,32s-11-15-16-32c-9-29-18-36-74-56c-35-12-70-20-78-17c-26,10-5,30,53,51c53,19,59,24,70,61
		c17,56,24,65,48,61C358.7,678.2,368.7,664.2,380.7,628.2z"/>
</g>
</svg>
