<?xml version="1.0" encoding="utf-8"?>
<!-- Generator: Adobe Illustrator 24.3.0, SVG Export Plug-In . SVG Version: 6.00 Build 0)  -->
<svg version="1.1" id="Warstwa_1" xmlns="http://www.w3.org/2000/svg" xmlns:xlink="http://www.w3.org/1999/xlink" x="0px" y="0px"
	 viewBox="0 0 85.5 91.8" style="enable-background:new 0 0 85.5 91.8;" xml:space="preserve">
<g transform="translate(0.000000,100.000000) scale(0.100000,-0.100000)">
	<path d="M249,970.8c-20-20-29-39-29-61c0-43,47-90,90-90s90,47,90,90c0,22-9,41-29,61C331,1009.8,289,1009.8,249,970.8z"/>
	<path d="M326,776.8l-89-21l-36-58c-20-32-41-56-47-54s-36,7-66,11c-59,7-88-7-88-45c0-33,28-48,116-60c86-12,87-12,105,11l19,24
		v-57c0-39-10-82-31-140l-31-83l23-98c25-107,43-133,83-123c36,9,40,40,17,125l-20,73l24,47c20,40,24,43,31,26c24-66,39-93,86-155
		c29-38,61-72,71-75c28-10,56,4,63,31c5,20-6,44-55,114l-62,89l3,162l3,163l38-34l38-33l75,23c85,27,109,47,100,84
		c-9,35-42,41-103,18l-51-19l-43,38c-24,21-53,38-64,37C424,797.8,375,787.8,326,776.8z"/>
	<path d="M725,607.8c-3-7-6-51-7-98l-3-85l-44-6c-67-9-92-58-51-99c29-29,84-27,115,5c23,22,25,31,25,121c0,95,0,96,23,89
		c12-4,33-8,47-9c22-1,25,3,25,33c0,32-2,34-50,47C742,622.8,730,622.8,725,607.8z"/>
</g>
</svg>
